<svg width="141" height="36" viewBox="0 0 141 36" fill="none" xmlns="http://www.w3.org/2000/svg">
<path d="M14.4659 0C13.629 0 12.9506 0.678407 12.9506 1.51527V5.81199C12.9506 6.22638 13.1203 6.62269 13.4202 6.90865L16.9545 10.2784C17.5398 10.8365 18.4601 10.8366 19.0455 10.2786L22.5813 6.90868C22.589 6.90137 22.5966 6.89398 22.6041 6.88652C22.8899 6.60242 23.0512 6.21571 23.0512 5.81181V5.80639V1.51526C23.0512 0.678406 22.3728 0 21.5359 0H14.4659Z" fill="#B2F72A"/>
<path d="M2.77355 7.77176C2.18189 8.36342 2.18179 9.32265 2.77333 9.91444L5.80944 12.9518C6.10244 13.245 6.50273 13.4053 6.91707 13.3955L11.8006 13.2795C12.6093 13.2603 13.2603 12.6093 13.2795 11.8007L13.3954 6.91709C13.4053 6.50274 13.245 6.10245 12.9518 5.80944L9.91445 2.77333C9.32266 2.18179 8.36343 2.1819 7.77177 2.77355L2.77355 7.77176Z" fill="#B2F72A"/>
<path d="M0 21.5359C0 22.3728 0.678406 23.0512 1.51526 23.0512H5.81182C6.22631 23.0512 6.62271 22.8814 6.90868 22.5813L10.2786 19.0456C10.8366 18.4602 10.8365 17.5398 10.2784 16.9545L6.90865 13.4203C6.62269 13.1203 6.22638 12.9506 5.81199 12.9506H1.51526C0.678405 12.9506 0 13.629 0 14.4659V21.5359Z" fill="#B2F72A"/>
<path d="M7.77154 33.2279C8.36327 33.8197 9.32279 33.8198 9.91459 33.228L12.9521 30.1905C13.2451 29.8975 13.4053 29.4973 13.3954 29.0831L13.2795 24.1993C13.2603 23.3907 12.6093 22.7397 11.8006 22.7205L6.91708 22.6045C6.50273 22.5947 6.10244 22.755 5.80944 23.0482L2.77318 26.0857C2.1817 26.6774 2.18174 27.6366 2.77327 28.2282L7.77154 33.2279Z" fill="#B2F72A"/>
<path d="M21.5359 36C22.3728 36 23.0512 35.3216 23.0512 34.4847V30.1882C23.0512 29.7737 22.8814 29.3773 22.5813 29.0913L19.0455 25.7213C18.4601 25.1634 17.5398 25.1635 16.9545 25.7216L13.4202 29.0914C13.1203 29.3773 12.9506 29.7736 12.9506 30.188V34.4847C12.9506 35.3216 13.629 36 14.4659 36H21.5359Z" fill="#B2F72A"/>
<path d="M33.2281 28.2285C33.8199 27.6367 33.8199 26.6773 33.2281 26.0856L30.1905 23.0479C29.8975 22.7549 29.4973 22.5947 29.0831 22.6045L24.1993 22.7205C23.3906 22.7397 22.7396 23.3907 22.7204 24.1993L22.6045 29.0831C22.5947 29.4973 22.7549 29.8975 23.0479 30.1905L26.0855 33.2281C26.6773 33.8199 27.6367 33.8199 28.2284 33.2281L33.2281 28.2285Z" fill="#B2F72A"/>
<path d="M36 14.4659C36 13.629 35.3216 12.9506 34.4847 12.9506H30.1919H30.188C29.7849 12.9506 29.399 13.1112 29.1151 13.3959C29.1071 13.4039 29.0991 13.412 29.0913 13.4203L25.7215 16.9545C25.1635 17.5398 25.1634 18.4602 25.7213 19.0456L29.0913 22.5813C29.3772 22.8814 29.7736 23.0512 30.1881 23.0512H34.4847C35.3216 23.0512 36 22.3728 36 21.5359V14.4659Z" fill="#B2F72A"/>
<path d="M13.4354 18.0064C13.4354 15.4819 15.4819 13.4354 18.0064 13.4354C20.5309 13.4354 22.5775 15.4819 22.5775 18.0064C22.5775 20.531 20.5309 22.5775 18.0064 22.5775C15.4819 22.5775 13.4354 20.531 13.4354 18.0064Z" fill="#B2F72A"/>
<path d="M23.0512 5.80639V5.81181C23.0512 6.21571 22.8899 6.60242 22.6041 6.88652C22.6041 6.8967 22.6043 6.90689 22.6045 6.91709L22.7204 11.8007C22.7396 12.6093 23.3907 13.2603 24.1993 13.2795L29.0831 13.3955C29.0938 13.3957 29.1044 13.3959 29.1151 13.3959C29.399 13.1112 29.7849 12.9506 30.188 12.9506H30.1919L33.228 9.91458C33.8198 9.32278 33.8197 8.36325 33.2278 7.77153L28.2282 2.77326C27.6365 2.18174 26.6774 2.18171 26.0857 2.77318L23.0512 5.80639Z" fill="#B2F72A"/>
<path d="M136.004 25.5385C135.666 25.5385 135.377 25.4259 135.135 25.2007C134.91 24.9595 134.798 24.6699 134.798 24.3322V14.4648H132.844C132.699 14.4648 132.578 14.4165 132.482 14.32C132.385 14.2235 132.337 14.1029 132.337 13.9582V12.2211C132.337 12.0764 132.385 11.9557 132.482 11.8592C132.578 11.7627 132.699 11.7145 132.844 11.7145H136.487C136.824 11.7145 137.106 11.8351 137.331 12.0764C137.572 12.3015 137.693 12.583 137.693 12.9208V22.7881H139.647C139.792 22.7881 139.912 22.8364 140.009 22.9329C140.105 23.0294 140.154 23.15 140.154 23.2948V25.0318C140.154 25.1766 140.105 25.2972 140.009 25.3937C139.912 25.4902 139.792 25.5385 139.647 25.5385H136.004ZM135.425 10.0981C135.28 10.0981 135.16 10.0498 135.063 9.9533C134.967 9.8568 134.918 9.73617 134.918 9.59141V6.96172C134.918 6.81696 134.967 6.69633 135.063 6.59983C135.16 6.50333 135.28 6.45508 135.425 6.45508H137.066C137.21 6.45508 137.331 6.50333 137.427 6.59983C137.524 6.69633 137.572 6.81696 137.572 6.96172V9.59141C137.572 9.73617 137.524 9.8568 137.427 9.9533C137.331 10.0498 137.21 10.0981 137.066 10.0981H135.425Z" fill="#F7F7F7"/>
<path d="M123.138 25.8517C122.237 25.8517 121.441 25.6828 120.749 25.345C120.074 24.9912 119.543 24.5087 119.157 23.8975C118.771 23.2702 118.578 22.5464 118.578 21.7262C118.578 20.6164 118.964 19.6996 119.736 18.9758C120.508 18.236 121.594 17.7535 122.993 17.5283C123.218 17.4961 123.54 17.4559 123.958 17.4077C124.392 17.3433 124.811 17.2871 125.213 17.2388C125.631 17.1745 125.912 17.1262 126.057 17.094C126.363 17.0458 126.588 16.9412 126.733 16.7804C126.877 16.6035 126.95 16.3703 126.95 16.0808V15.9601C126.918 15.3811 126.652 14.9308 126.154 14.6091C125.655 14.2713 125.06 14.1025 124.368 14.1025C123.725 14.1025 123.162 14.2231 122.679 14.4643C122.197 14.7056 121.811 15.0594 121.521 15.5259C121.393 15.735 121.24 15.8395 121.063 15.8395C120.934 15.8395 120.83 15.8073 120.749 15.743L119.398 14.8262C119.254 14.7297 119.181 14.593 119.181 14.4161C119.181 14.3678 119.197 14.2955 119.23 14.199C119.696 13.3144 120.388 12.6308 121.304 12.1483C122.221 11.6497 123.258 11.4004 124.417 11.4004C125.494 11.4004 126.427 11.6014 127.215 12.0035C128.019 12.4056 128.639 12.9766 129.073 13.7165C129.523 14.4402 129.748 15.2927 129.748 16.2738V25.0314C129.748 25.1761 129.7 25.2968 129.604 25.3933C129.507 25.4898 129.386 25.538 129.242 25.538H127.601C127.263 25.538 127.094 25.3691 127.094 25.0314V24.0905C126.548 24.6856 125.944 25.1279 125.285 25.4174C124.626 25.7069 123.91 25.8517 123.138 25.8517ZM123.355 23.2702C123.998 23.2702 124.593 23.1094 125.14 22.7877C125.703 22.466 126.154 22.0478 126.491 21.5332C126.845 21.0185 127.022 20.4636 127.022 19.8685V19.386C126.668 19.4342 126.242 19.4986 125.743 19.579C125.245 19.6433 124.77 19.7077 124.32 19.772C123.87 19.8202 123.532 19.8685 123.307 19.9167C121.988 20.158 121.328 20.729 121.328 21.6297C121.328 22.1283 121.513 22.5304 121.883 22.836C122.253 23.1255 122.744 23.2702 123.355 23.2702Z" fill="#F7F7F7"/>
<path d="M114.32 26.1181C113.758 26.1181 113.275 25.9251 112.873 25.5391C112.487 25.137 112.294 24.6626 112.294 24.1157C112.294 23.5528 112.487 23.0783 112.873 22.6923C113.275 22.3063 113.758 22.1133 114.32 22.1133C114.867 22.1133 115.334 22.3063 115.72 22.6923C116.106 23.0783 116.299 23.5528 116.299 24.1157C116.299 24.6626 116.106 25.137 115.72 25.5391C115.334 25.9251 114.867 26.1181 114.32 26.1181Z" fill="#F7F7F7"/>
<path d="M102.57 25.8517C101.669 25.8517 100.873 25.6828 100.181 25.345C99.5056 24.9912 98.9748 24.5087 98.5888 23.8975C98.2028 23.2702 98.0098 22.5464 98.0098 21.7262C98.0098 20.6164 98.3958 19.6996 99.1678 18.9758C99.9398 18.236 101.025 17.7535 102.425 17.5283C102.65 17.4961 102.972 17.4559 103.39 17.4077C103.824 17.3433 104.242 17.2871 104.644 17.2388C105.062 17.1745 105.344 17.1262 105.489 17.094C105.794 17.0458 106.019 16.9412 106.164 16.7804C106.309 16.6035 106.381 16.3703 106.381 16.0808V15.9601C106.349 15.3811 106.084 14.9308 105.585 14.6091C105.087 14.2713 104.492 14.1025 103.8 14.1025C103.157 14.1025 102.594 14.2231 102.111 14.4643C101.629 14.7056 101.243 15.0594 100.953 15.5259C100.824 15.735 100.672 15.8395 100.495 15.8395C100.366 15.8395 100.261 15.8073 100.181 15.743L98.83 14.8262C98.6853 14.7297 98.6129 14.593 98.6129 14.4161C98.6129 14.3678 98.629 14.2955 98.6612 14.199C99.1276 13.3144 99.8192 12.6308 100.736 12.1483C101.653 11.6497 102.69 11.4004 103.848 11.4004C104.926 11.4004 105.859 11.6014 106.647 12.0035C107.451 12.4056 108.07 12.9766 108.504 13.7165C108.955 14.4402 109.18 15.2927 109.18 16.2738V25.0314C109.18 25.1761 109.132 25.2968 109.035 25.3933C108.939 25.4898 108.818 25.538 108.673 25.538H107.033C106.695 25.538 106.526 25.3691 106.526 25.0314V24.0905C105.979 24.6856 105.376 25.1279 104.717 25.4174C104.057 25.7069 103.342 25.8517 102.57 25.8517ZM102.787 23.2702C103.43 23.2702 104.025 23.1094 104.572 22.7877C105.135 22.466 105.585 22.0478 105.923 21.5332C106.277 21.0185 106.454 20.4636 106.454 19.8685V19.386C106.1 19.4342 105.674 19.4986 105.175 19.579C104.676 19.6433 104.202 19.7077 103.752 19.772C103.301 19.8202 102.964 19.8685 102.738 19.9167C101.42 20.158 100.76 20.729 100.76 21.6297C100.76 22.1283 100.945 22.5304 101.315 22.836C101.685 23.1255 102.175 23.2702 102.787 23.2702Z" fill="#F7F7F7"/>
<path d="M87.0137 25.4665C86.6599 25.4665 86.3543 25.3298 86.0969 25.0563C85.8396 24.7668 85.7109 24.4451 85.7109 24.0913C85.7109 23.85 85.7753 23.6329 85.9039 23.4399L91.9595 14.4652H86.483C86.3382 14.4652 86.2176 14.4169 86.1211 14.3204C86.0246 14.2239 85.9763 14.1033 85.9763 13.9585V12.2215C85.9763 12.0767 86.0246 11.9561 86.1211 11.8596C86.2176 11.7631 86.3382 11.7148 86.483 11.7148H94.6374C95.0073 11.7148 95.3129 11.8516 95.5542 12.125C95.8115 12.3984 95.9402 12.712 95.9402 13.0659C95.9402 13.1785 95.9241 13.2911 95.892 13.4036C95.8759 13.5162 95.8276 13.6288 95.7472 13.7414L89.6434 22.7885H95.5301C95.6748 22.7885 95.7954 22.8448 95.892 22.9574C96.0045 23.0539 96.0608 23.1745 96.0608 23.3193L96.0367 25.0322C96.0367 25.37 95.8678 25.5388 95.5301 25.5388L87.0137 25.4665Z" fill="#F7F7F7"/>
<path d="M79.1408 25.5388C78.8513 25.5388 78.602 25.4423 78.3929 25.2493C78.1999 25.0402 78.1034 24.791 78.1034 24.5014V9.85717H75.908C75.7632 9.85717 75.6426 9.80892 75.5461 9.71242C75.4496 9.61591 75.4014 9.49528 75.4014 9.35053V7.56523C75.4014 7.42048 75.4496 7.29985 75.5461 7.20335C75.6426 7.10684 75.7632 7.05859 75.908 7.05859H79.9611C80.2506 7.05859 80.4919 7.16314 80.6849 7.37223C80.894 7.56523 80.9985 7.80649 80.9985 8.096V22.7403H83.1939C83.3387 22.7403 83.4593 22.7885 83.5558 22.885C83.6523 22.9815 83.7006 23.1022 83.7006 23.2469V25.0322C83.7006 25.177 83.6523 25.2976 83.5558 25.3941C83.4593 25.4906 83.3387 25.5388 83.1939 25.5388H79.1408Z" fill="#F7F7F7"/>
<path d="M68.2565 25.8517C67.195 25.8517 66.23 25.5943 65.3615 25.0796C64.493 24.565 63.8013 23.8814 63.2867 23.029C62.772 22.1765 62.5146 21.2356 62.5146 20.2063V17.0458C62.5146 16.0164 62.772 15.0755 63.2867 14.2231C63.8013 13.3707 64.493 12.6871 65.3615 12.1724C66.23 11.6577 67.195 11.4004 68.2565 11.4004C69.3181 11.4004 70.2831 11.6577 71.1516 12.1724C72.0201 12.6871 72.7117 13.3707 73.2264 14.2231C73.7411 15.0755 73.9984 16.0164 73.9984 17.0458V20.2063C73.9984 21.2356 73.7411 22.1765 73.2264 23.029C72.7117 23.8814 72.0201 24.565 71.1516 25.0796C70.2831 25.5943 69.3181 25.8517 68.2565 25.8517ZM68.2565 23.0531C68.7873 23.0531 69.2618 22.9244 69.68 22.6671C70.1142 22.4097 70.46 22.0639 70.7174 21.6297C70.9747 21.1954 71.1034 20.7209 71.1034 20.2063V17.0458C71.1034 16.515 70.9747 16.0406 70.7174 15.6224C70.46 15.1881 70.1142 14.8423 69.68 14.585C69.2618 14.3276 68.7873 14.199 68.2565 14.199C67.7419 14.199 67.2674 14.3276 66.8331 14.585C66.3989 14.8423 66.0531 15.1881 65.7957 15.6224C65.5384 16.0406 65.4097 16.515 65.4097 17.0458V20.2063C65.4097 20.7209 65.5384 21.1954 65.7957 21.6297C66.0531 22.0639 66.3989 22.4097 66.8331 22.6671C67.2674 22.9244 67.7419 23.0531 68.2565 23.0531Z" fill="#F7F7F7"/>
<path d="M49.698 25.5389C49.5533 25.5389 49.4327 25.4907 49.3362 25.3942C49.2397 25.2976 49.1914 25.177 49.1914 25.0323V9.32647C49.1914 9.03696 49.2879 8.7957 49.4809 8.6027C49.69 8.39361 49.9393 8.28906 50.2288 8.28906H54.5232C55.5686 8.28906 56.5095 8.53836 57.3459 9.03696C58.1983 9.53555 58.8738 10.203 59.3724 11.0394C59.8871 11.8757 60.1444 12.8086 60.1444 13.838C60.1444 14.8673 59.8871 15.8082 59.3724 16.6607C58.8738 17.497 58.1983 18.1645 57.3459 18.6631C56.5095 19.1617 55.5686 19.411 54.5232 19.411H52.1347V25.0323C52.1347 25.177 52.0865 25.2976 51.99 25.3942C51.8935 25.4907 51.7728 25.5389 51.6281 25.5389H49.698ZM52.1347 16.6365H54.4267C54.9253 16.6365 55.3837 16.5159 55.8018 16.2747C56.2361 16.0173 56.5738 15.6796 56.8151 15.2614C57.0724 14.8271 57.2011 14.3526 57.2011 13.838C57.2011 13.3233 57.0724 12.8569 56.8151 12.4387C56.5738 12.0205 56.2361 11.6908 55.8018 11.4495C55.3837 11.1922 54.9253 11.0635 54.4267 11.0635H52.1347V16.6365Z" fill="#F7F7F7"/>
</svg>
