<svg width="2796" height="718" viewBox="0 0 2796 718" fill="none" xmlns="http://www.w3.org/2000/svg">
<path d="M288.512 0C271.821 0 258.291 13.5305 258.291 30.2211V115.917C258.291 124.182 261.676 132.086 267.658 137.789L338.145 204.998C349.818 216.128 368.175 216.13 379.85 205.002L450.369 137.79C450.522 137.644 450.673 137.497 450.823 137.348C456.524 131.682 459.74 123.969 459.74 115.913V115.805V30.2211C459.74 13.5304 446.209 0 429.519 0H288.512Z" fill="#B2F72A"/>
<path d="M55.3166 155.003C43.5164 166.804 43.5143 185.935 55.3121 197.738L115.865 258.317C121.709 264.164 129.692 267.361 137.956 267.165L235.355 264.853C251.484 264.47 264.468 251.486 264.851 235.358L267.163 137.957C267.359 129.694 264.162 121.71 258.315 115.866L197.737 55.3125C185.934 43.5147 166.803 43.5167 155.003 55.317L55.3166 155.003Z" fill="#B2F72A"/>
<path d="M0 429.522C0 446.212 13.5303 459.743 30.2209 459.743H115.913C124.179 459.743 132.085 456.356 137.789 450.372L205 379.853C216.128 368.178 216.126 349.822 204.996 338.148L137.788 267.66C132.085 261.678 124.181 258.293 115.916 258.293H30.2208C13.5303 258.293 0 271.824 0 288.514V429.522Z" fill="#B2F72A"/>
<path d="M154.998 662.711C166.8 674.516 185.937 674.517 197.74 662.714L258.32 602.133C264.163 596.29 267.359 588.308 267.163 580.046L264.851 482.643C264.468 466.514 251.484 453.53 235.355 453.147L137.956 450.835C129.692 450.639 121.709 453.836 115.865 459.683L55.3092 520.265C43.5126 532.067 43.5133 551.196 55.3109 562.997L154.998 662.711Z" fill="#B2F72A"/>
<path d="M429.519 718C446.209 718 459.74 704.47 459.74 687.779V602.087C459.74 593.82 456.353 585.914 450.369 580.21L379.85 512.998C368.175 501.87 349.818 501.872 338.145 513.002L267.658 580.211C261.676 585.914 258.291 593.818 258.291 602.083V687.779C258.291 704.47 271.821 718 288.512 718H429.519Z" fill="#B2F72A"/>
<path d="M662.711 563.001C674.513 551.199 674.514 532.064 662.712 520.262L602.128 459.678C596.285 453.835 588.303 450.639 580.042 450.835L482.639 453.147C466.51 453.53 453.526 466.514 453.144 482.643L450.831 580.046C450.635 588.308 453.831 596.29 459.674 602.133L520.257 662.717C532.059 674.519 551.194 674.519 562.996 662.717L662.711 563.001Z" fill="#B2F72A"/>
<path d="M717.994 288.514C717.994 271.824 704.464 258.293 687.773 258.293H602.157H602.078C594.04 258.293 586.343 261.495 580.68 267.173C580.52 267.334 580.362 267.496 580.206 267.66L512.998 338.148C501.868 349.822 501.866 368.178 512.994 379.853L580.205 450.372C585.909 456.356 593.815 459.743 602.081 459.743H687.773C704.464 459.743 717.994 446.212 717.994 429.522V288.514Z" fill="#B2F72A"/>
<path d="M267.959 359.128C267.959 308.778 308.776 267.961 359.125 267.961C409.475 267.961 450.292 308.778 450.292 359.128C450.292 409.478 409.475 450.295 359.125 450.295C308.776 450.295 267.959 409.478 267.959 359.128Z" fill="#B2F72A"/>
<path d="M459.74 115.805V115.913C459.74 123.969 456.524 131.682 450.823 137.348C450.824 137.551 450.827 137.754 450.831 137.957L453.144 235.358C453.526 251.486 466.51 264.47 482.639 264.853L580.042 267.165C580.255 267.17 580.468 267.173 580.68 267.173C586.343 261.495 594.04 258.293 602.078 258.293H602.157L662.709 197.741C674.512 185.938 674.51 166.8 662.706 154.999L562.992 55.3112C551.191 43.5136 532.062 43.5129 520.26 55.3096L459.74 115.805Z" fill="#B2F72A"/>
<path d="M2712.52 509.37C2705.79 509.37 2700.01 507.125 2695.2 502.634C2690.71 497.822 2688.47 492.048 2688.47 485.312V288.512H2649.49C2646.6 288.512 2644.2 287.55 2642.27 285.625C2640.35 283.7 2639.39 281.294 2639.39 278.407V243.763C2639.39 240.876 2640.35 238.47 2642.27 236.545C2644.2 234.621 2646.6 233.658 2649.49 233.658H2722.15C2728.88 233.658 2734.5 236.064 2738.99 240.876C2743.8 245.367 2746.21 250.981 2746.21 257.717V454.517H2785.18C2788.07 454.517 2790.47 455.479 2792.4 457.404C2794.32 459.328 2795.29 461.734 2795.29 464.621V499.266C2795.29 502.153 2794.32 504.559 2792.4 506.483C2790.47 508.408 2788.07 509.37 2785.18 509.37H2712.52ZM2700.98 201.42C2698.09 201.42 2695.68 200.457 2693.76 198.533C2691.83 196.608 2690.87 194.202 2690.87 191.315V138.867C2690.87 135.98 2691.83 133.574 2693.76 131.65C2695.68 129.725 2698.09 128.763 2700.98 128.763H2733.7C2736.58 128.763 2738.99 129.725 2740.91 131.65C2742.84 133.574 2743.8 135.98 2743.8 138.867V191.315C2743.8 194.202 2742.84 196.608 2740.91 198.533C2738.99 200.457 2736.58 201.42 2733.7 201.42H2700.98Z" fill="#171717"/>
<path d="M2455.9 515.616C2437.93 515.616 2422.06 512.248 2408.26 505.511C2394.79 498.454 2384.2 488.831 2376.51 476.641C2368.81 464.131 2364.96 449.695 2364.96 433.336C2364.96 411.202 2372.66 392.917 2388.05 378.482C2403.45 363.726 2425.1 354.102 2453.01 349.611C2457.5 348.97 2463.92 348.168 2472.26 347.206C2480.92 345.922 2489.26 344.8 2497.28 343.837C2505.62 342.554 2511.23 341.592 2514.12 340.95C2520.21 339.988 2524.71 337.903 2527.59 334.695C2530.48 331.167 2531.92 326.515 2531.92 320.741V318.335C2531.28 306.787 2525.99 297.805 2516.04 291.39C2506.1 284.653 2494.23 281.285 2480.44 281.285C2467.61 281.285 2456.38 283.691 2446.76 288.503C2437.13 293.314 2429.43 300.371 2423.66 309.674C2421.09 313.844 2418.05 315.929 2414.52 315.929C2411.95 315.929 2409.87 315.288 2408.26 314.005L2381.32 295.72C2378.43 293.795 2376.99 291.069 2376.99 287.54C2376.99 286.578 2377.31 285.134 2377.95 283.21C2387.25 265.567 2401.04 251.933 2419.33 242.31C2437.61 232.366 2458.3 227.394 2481.4 227.394C2502.89 227.394 2521.5 231.403 2537.22 239.423C2553.25 247.442 2565.6 258.83 2574.27 273.586C2583.25 288.021 2587.74 305.023 2587.74 324.59V499.256C2587.74 502.143 2586.78 504.549 2584.85 506.474C2582.93 508.398 2580.52 509.361 2577.63 509.361H2544.91C2538.18 509.361 2534.81 505.993 2534.81 499.256V480.49C2523.9 492.359 2511.87 501.181 2498.72 506.955C2485.57 512.729 2471.3 515.616 2455.9 515.616ZM2460.23 464.131C2473.06 464.131 2484.93 460.923 2495.84 454.507C2507.06 448.091 2516.04 439.751 2522.78 429.486C2529.84 419.221 2533.37 408.154 2533.37 396.285V386.662C2526.31 387.624 2517.81 388.907 2507.86 390.511C2497.92 391.794 2488.46 393.077 2479.48 394.361C2470.49 395.323 2463.76 396.285 2459.27 397.248C2432.96 402.059 2419.81 413.447 2419.81 431.411C2419.81 441.355 2423.5 449.375 2430.88 455.469C2438.26 461.244 2448.04 464.131 2460.23 464.131Z" fill="#171717"/>
<path d="M2280.06 520.912C2268.84 520.912 2259.21 517.062 2251.19 509.364C2243.49 501.344 2239.64 491.881 2239.64 480.974C2239.64 469.747 2243.49 460.284 2251.19 452.585C2259.21 444.886 2268.84 441.037 2280.06 441.037C2290.97 441.037 2300.27 444.886 2307.97 452.585C2315.67 460.284 2319.52 469.747 2319.52 480.974C2319.52 491.881 2315.67 501.344 2307.97 509.364C2300.27 517.062 2290.97 520.912 2280.06 520.912Z" fill="#171717"/>
<path d="M2045.68 515.616C2027.71 515.616 2011.84 512.248 1998.04 505.511C1984.57 498.454 1973.98 488.831 1966.28 476.641C1958.59 464.131 1954.74 449.695 1954.74 433.336C1954.74 411.202 1962.44 392.917 1977.83 378.482C1993.23 363.726 2014.88 354.102 2042.79 349.611C2047.28 348.97 2053.7 348.168 2062.04 347.206C2070.7 345.922 2079.04 344.8 2087.06 343.837C2095.4 342.554 2101.01 341.592 2103.9 340.95C2109.99 339.988 2114.48 337.903 2117.37 334.695C2120.26 331.167 2121.7 326.515 2121.7 320.741V318.335C2121.06 306.787 2115.77 297.805 2105.82 291.39C2095.88 284.653 2084.01 281.285 2070.22 281.285C2057.39 281.285 2046.16 283.691 2036.54 288.503C2026.91 293.314 2019.21 300.371 2013.44 309.674C2010.87 313.844 2007.83 315.929 2004.3 315.929C2001.73 315.929 1999.65 315.288 1998.04 314.005L1971.1 295.72C1968.21 293.795 1966.77 291.069 1966.77 287.54C1966.77 286.578 1967.09 285.134 1967.73 283.21C1977.03 265.567 1990.82 251.933 2009.11 242.31C2027.39 232.366 2048.08 227.394 2071.18 227.394C2092.67 227.394 2111.28 231.403 2126.99 239.423C2143.03 247.442 2155.38 258.83 2164.04 273.586C2173.03 288.021 2177.52 305.023 2177.52 324.59V499.256C2177.52 502.143 2176.56 504.549 2174.63 506.474C2172.71 508.398 2170.3 509.361 2167.41 509.361H2134.69C2127.96 509.361 2124.59 505.993 2124.59 499.256V480.49C2113.68 492.359 2101.65 501.181 2088.5 506.955C2075.35 512.729 2061.07 515.616 2045.68 515.616ZM2050.01 464.131C2062.84 464.131 2074.71 460.923 2085.61 454.507C2096.84 448.091 2105.82 439.751 2112.56 429.486C2119.62 419.221 2123.15 408.154 2123.15 396.285V386.662C2116.09 387.624 2107.59 388.907 2097.64 390.511C2087.7 391.794 2078.24 393.077 2069.25 394.361C2060.27 395.323 2053.54 396.285 2049.05 397.248C2022.74 402.059 2009.59 413.447 2009.59 431.411C2009.59 441.355 2013.28 449.375 2020.66 455.469C2028.03 461.244 2037.82 464.131 2050.01 464.131Z" fill="#171717"/>
<path d="M1735.43 507.935C1728.37 507.935 1722.28 505.208 1717.14 499.755C1712.01 493.981 1709.45 487.565 1709.45 480.508C1709.45 475.696 1710.73 471.365 1713.29 467.516L1834.07 288.52H1724.84C1721.96 288.52 1719.55 287.557 1717.63 285.633C1715.7 283.708 1714.74 281.302 1714.74 278.415V243.771C1714.74 240.884 1715.7 238.478 1717.63 236.553C1719.55 234.628 1721.96 233.666 1724.84 233.666H1887.48C1894.86 233.666 1900.95 236.393 1905.76 241.846C1910.89 247.299 1913.46 253.554 1913.46 260.612C1913.46 262.857 1913.14 265.103 1912.5 267.348C1912.18 269.594 1911.22 271.839 1909.61 274.085L1787.88 454.524H1905.28C1908.17 454.524 1910.57 455.647 1912.5 457.893C1914.74 459.817 1915.87 462.223 1915.87 465.11L1915.39 499.273C1915.39 506.01 1912.02 509.378 1905.28 509.378L1735.43 507.935Z" fill="#171717"/>
<path d="M1578.39 509.377C1572.62 509.377 1567.64 507.453 1563.47 503.603C1559.62 499.433 1557.7 494.461 1557.7 488.687V196.615H1513.91C1511.03 196.615 1508.62 195.653 1506.7 193.728C1504.77 191.803 1503.81 189.397 1503.81 186.51V150.903C1503.81 148.016 1504.77 145.611 1506.7 143.686C1508.62 141.761 1511.03 140.799 1513.91 140.799H1594.75C1600.52 140.799 1605.34 142.884 1609.18 147.054C1613.35 150.903 1615.44 155.715 1615.44 161.489V453.561H1659.23C1662.11 453.561 1664.52 454.524 1666.44 456.448C1668.37 458.373 1669.33 460.779 1669.33 463.666V499.273C1669.33 502.16 1668.37 504.565 1666.44 506.49C1664.52 508.415 1662.11 509.377 1659.23 509.377H1578.39Z" fill="#171717"/>
<path d="M1361.31 515.616C1340.14 515.616 1320.89 510.484 1303.57 500.219C1286.25 489.954 1272.45 476.32 1262.19 459.319C1251.92 442.317 1246.79 423.552 1246.79 403.022V339.988C1246.79 319.458 1251.92 300.692 1262.19 283.691C1272.45 266.689 1286.25 253.056 1303.57 242.791C1320.89 232.526 1340.14 227.394 1361.31 227.394C1382.48 227.394 1401.73 232.526 1419.05 242.791C1436.37 253.056 1450.17 266.689 1460.43 283.691C1470.69 300.692 1475.83 319.458 1475.83 339.988V403.022C1475.83 423.552 1470.69 442.317 1460.43 459.319C1450.17 476.32 1436.37 489.954 1419.05 500.219C1401.73 510.484 1382.48 515.616 1361.31 515.616ZM1361.31 459.8C1371.89 459.8 1381.36 457.234 1389.7 452.101C1398.36 446.969 1405.26 440.072 1410.39 431.411C1415.52 422.75 1418.09 413.287 1418.09 403.022V339.988C1418.09 329.402 1415.52 319.939 1410.39 311.599C1405.26 302.938 1398.36 296.041 1389.7 290.908C1381.36 285.776 1371.89 283.21 1361.31 283.21C1351.04 283.21 1341.58 285.776 1332.92 290.908C1324.26 296.041 1317.36 302.938 1312.23 311.599C1307.1 319.939 1304.53 329.402 1304.53 339.988V403.022C1304.53 413.287 1307.1 422.75 1312.23 431.411C1317.36 440.072 1324.26 446.969 1332.92 452.101C1341.58 457.234 1351.04 459.8 1361.31 459.8Z" fill="#171717"/>
<path d="M991.194 509.36C988.307 509.36 985.902 508.397 983.977 506.473C982.052 504.548 981.09 502.142 981.09 499.255V186.012C981.09 180.238 983.015 175.426 986.864 171.577C991.034 167.406 996.006 165.321 1001.78 165.321H1087.43C1108.28 165.321 1127.04 170.293 1143.72 180.238C1160.73 190.182 1174.2 203.494 1184.14 220.175C1194.41 236.856 1199.54 255.461 1199.54 275.991C1199.54 296.521 1194.41 315.287 1184.14 332.288C1174.2 348.969 1160.73 362.281 1143.72 372.226C1127.04 382.17 1108.28 387.142 1087.43 387.142H1039.79V499.255C1039.79 502.142 1038.83 504.548 1036.91 506.473C1034.98 508.397 1032.57 509.36 1029.69 509.36H991.194ZM1039.79 331.807H1085.5C1095.45 331.807 1104.59 329.401 1112.93 324.589C1121.59 319.457 1128.33 312.721 1133.14 304.38C1138.27 295.719 1140.84 286.256 1140.84 275.991C1140.84 265.726 1138.27 256.423 1133.14 248.083C1128.33 239.743 1121.59 233.167 1112.93 228.355C1104.59 223.222 1095.45 220.656 1085.5 220.656H1039.79V331.807Z" fill="#171717"/>
</svg>
